<svg width="106" height="106" viewBox="0 0 106 106" fill="none" xmlns="http://www.w3.org/2000/svg">
<path d="M35.441 60.6689L5.05469 91.0552" stroke="white" stroke-width="6"/>
<path d="M45.3277 70.563L14.9414 100.949" stroke="white" stroke-width="6"/>
<path d="M14.9491 100.949C13.637 102.261 11.8574 102.998 10.0019 102.998C8.14632 102.998 6.36676 102.261 5.05469 100.949" stroke="white" stroke-width="6" stroke-linecap="round" stroke-linejoin="round"/>
<path d="M5.04919 91.0547C3.73712 92.3668 3 94.1463 3 96.0019C3 97.8574 3.73712 99.637 5.04919 100.949" stroke="white" stroke-width="6" stroke-linecap="round" stroke-linejoin="round"/>
<path d="M103.003 34.4837C103.003 38.6182 102.188 42.7122 100.606 46.532C99.0238 50.3518 96.7047 53.8225 93.7812 56.746C90.8577 59.6696 87.3869 61.9886 83.5671 63.5708C79.7474 65.153 75.6534 65.9674 71.5189 65.9674C67.3844 65.9674 63.2903 65.153 59.4706 63.5708C55.6508 61.9886 52.18 59.6696 49.2565 56.746C46.333 53.8225 44.0139 50.3518 42.4317 46.532C40.8495 42.7122 40.0352 38.6182 40.0352 34.4837C40.0352 26.1337 43.3522 18.1257 49.2565 12.2214C55.1609 6.31702 63.1689 3 71.5189 3C75.6534 3 79.7474 3.81435 83.5671 5.39655C87.3869 6.97876 90.8577 9.29783 93.7812 12.2214C96.7047 15.1449 99.0238 18.6156 100.606 22.4354C102.188 26.2552 103.003 30.3492 103.003 34.4837Z" stroke="white" stroke-width="6" stroke-linecap="round" stroke-linejoin="round"/>
<path d="M35.4336 60.6689L45.328 70.5633" stroke="white" stroke-width="6" stroke-linecap="round" stroke-linejoin="round"/>
<path d="M40.3828 65.6159L49.2526 56.7461" stroke="white" stroke-width="6" stroke-linecap="round" stroke-linejoin="round"/>
<path d="M26.9922 69.1138L36.8866 79.0081" stroke="white" stroke-width="6" stroke-linecap="round" stroke-linejoin="round"/>
<path d="M89.0066 34.4836C89.0066 39.1225 87.1638 43.5714 83.8836 46.8516C80.6034 50.1318 76.1545 51.9746 71.5156 51.9746" stroke="white" stroke-width="6" stroke-linecap="round" stroke-linejoin="round"/>
</svg>
