<svg width="100" height="100" viewBox="0 0 100 100" fill="none" xmlns="http://www.w3.org/2000/svg">
<path d="M10.0937 100C7.21875 100 4.81875 99.0375 2.89375 97.1125C0.964582 95.1833 0 92.7812 0 89.9062V10.0937C0 7.21875 0.964582 4.81875 2.89375 2.89375C4.81875 0.964582 7.21875 0 10.0937 0H89.9062C92.7812 0 95.1813 0.964582 97.1063 2.89375C99.0354 4.81875 100 7.21875 100 10.0937V89.9062C100 92.7812 99.0375 95.1813 97.1125 97.1063C95.1833 99.0354 92.7812 100 89.9062 100H10.0937ZM6.25 31.2375H93.75V10.0937C93.75 9.13542 93.35 8.25417 92.55 7.45C91.7458 6.65 90.8646 6.25 89.9062 6.25H10.0937C9.13542 6.25 8.25417 6.65 7.45 7.45C6.65 8.25417 6.25 9.13542 6.25 10.0937V31.2375ZM6.25 62.5125H93.75V37.4875H6.25V62.5125ZM10.0937 93.75H89.9062C90.8646 93.75 91.7458 93.35 92.55 92.55C93.35 91.7458 93.75 90.8646 93.75 89.9062V68.7625H6.25V89.9062C6.25 90.8646 6.65 91.7458 7.45 92.55C8.25417 93.35 9.13542 93.75 10.0937 93.75ZM17.3125 23.775V13.675H27.4125V23.775H17.3125ZM17.3125 55.05V44.95H27.4125V55.05H17.3125ZM17.3125 86.325V76.225H27.4125V86.325H17.3125Z" fill="white"/>
</svg>
