<svg width="100" height="100" viewBox="0 0 100 100" fill="none" xmlns="http://www.w3.org/2000/svg">
<path d="M50 100C22.3844 100 0 77.6156 0 50C0 22.3844 22.3844 0 50 0C77.6156 0 100 22.3844 100 50H93.75C93.75 25.8375 74.1625 6.25 50 6.25C25.8375 6.25 6.25 25.8375 6.25 50C6.25 74.1625 25.8375 93.75 50 93.75V100Z" fill="white"/>
<path d="M84.375 62.5V100H78.125V62.5H84.375ZM68.75 75V100H62.5V75H68.75ZM100 68.75V100H93.75V68.75H100ZM53.125 28.125V46.875H71.875V53.125H53.125V71.875H46.875V53.125H28.125V46.875H46.875V28.125H53.125Z" fill="white"/>
</svg>
