<svg width="100" height="100" viewBox="0 0 100 100" fill="none" xmlns="http://www.w3.org/2000/svg">
<path d="M10.3536 43.8957L24.8487 50.0361C26.6867 46.3649 28.6865 42.8082 30.8479 39.3659C33.0093 35.9276 35.3956 32.5841 38.0067 29.3352L28.9251 27.5885C28.3177 27.4385 27.73 27.4582 27.162 27.6477C26.594 27.8372 26.0813 28.1609 25.6237 28.6188L10.3536 43.8957ZM29.5404 53.7902L46.2837 70.5179C50.9576 68.4099 55.6611 65.7256 60.3942 62.4649C65.1273 59.2042 69.6789 55.3909 74.0491 51.025C80.4191 44.6497 85.2863 37.8501 88.6507 30.6261C92.0152 23.4021 93.9064 15.061 94.3245 5.60269C84.8741 6.02113 76.5518 7.91397 69.3575 11.2812C62.1671 14.6485 55.387 19.5197 49.017 25.895C44.6468 30.2688 40.8347 34.8421 37.5807 39.6146C34.3267 44.3911 31.6505 49.1163 29.5404 53.7902ZM60.193 39.7271C58.4576 37.9902 57.5898 35.9059 57.5898 33.4742C57.5898 31.0426 58.4576 28.9563 60.193 27.2154C61.9285 25.4785 64.0367 24.6101 66.5176 24.6101C68.9985 24.6101 71.1067 25.4785 72.8422 27.2154C74.5777 28.9523 75.4454 31.0386 75.4454 33.4742C75.4454 35.9099 74.5777 37.9942 72.8422 39.7271C71.1067 41.464 68.9966 42.3325 66.5117 42.3325C64.0268 42.3325 61.9206 41.464 60.193 39.7271ZM56.0575 89.7562L71.3276 74.4733C71.7851 74.0154 72.1086 73.5022 72.2979 72.9338C72.4872 72.3653 72.5069 71.7771 72.3571 71.1692L70.6117 62.08C67.3656 64.6933 64.0249 67.0756 60.5894 69.227C57.154 71.3784 53.6002 73.3719 49.9281 75.2075L56.0575 89.7562ZM99.8504 0.149177C100.513 11.0286 98.9748 21.0356 95.2356 30.1702C91.5004 39.3047 85.6827 47.8275 77.7824 55.7383L76.7588 56.7627L75.7294 57.7871L78.1196 69.9376C78.4391 71.5324 78.3799 73.0778 77.9421 74.574C77.5003 76.0701 76.7036 77.3945 75.5519 78.5471L53.9986 100L44.1952 76.8773L23.1093 55.7738L0 45.8438L21.4054 24.391C22.5571 23.2383 23.8863 22.4231 25.393 21.9455C26.8997 21.4639 28.4478 21.3849 30.0374 21.7086L42.4025 24.2074C42.7851 23.8284 43.1086 23.487 43.3728 23.183C43.6371 22.8791 43.9605 22.5376 44.3431 22.1586C52.2474 14.2478 60.7571 8.43702 69.8722 4.72634C78.9913 1.01566 88.984 -0.510061 99.8504 0.149177ZM9.93357 73.2061C12.2488 70.8929 15.0611 69.7481 18.3703 69.7718C21.6835 69.7994 24.4957 70.9718 26.807 73.289C29.1223 75.6023 30.274 78.4169 30.2622 81.7328C30.2503 85.0487 29.0868 87.8633 26.7715 90.1766C24.76 92.1898 21.5355 93.9129 17.0983 95.3459C12.6571 96.7788 7.51969 97.7697 1.68616 98.3184C2.23441 92.476 3.24414 87.3344 4.71534 82.8934C6.18654 78.4485 7.92595 75.2194 9.93357 73.2061ZM14.1578 77.5109C13.018 78.6517 11.955 80.511 10.9689 83.0888C9.98287 85.6626 9.33207 88.3212 9.01653 91.0648C11.7538 90.745 14.4103 90.0779 16.9859 89.0634C19.5615 88.0489 21.4172 86.9731 22.5532 85.8363C23.7364 84.652 24.3399 83.2408 24.3636 81.6025C24.3872 79.9604 23.8074 78.5471 22.6242 77.3629C21.4409 76.1786 20.0288 75.6122 18.388 75.6635C16.7512 75.7108 15.3411 76.3267 14.1578 77.5109Z" fill="#F8F8F8"/>
</svg>
