<svg width="106" height="106" viewBox="0 0 106 106" fill="none" xmlns="http://www.w3.org/2000/svg">
<path d="M28 103H78" stroke="white" stroke-width="6" stroke-linecap="round" stroke-linejoin="round"/>
<path d="M3 78V13C3 10.3478 4.05357 7.8043 5.92893 5.92893C7.8043 4.05357 10.3478 3 13 3H93C95.6522 3 98.1957 4.05357 100.071 5.92893C101.946 7.8043 103 10.3478 103 13V78C103 80.6522 101.946 83.1957 100.071 85.0711C98.1957 86.9464 95.6522 88 93 88H13C10.3478 88 7.8043 86.9464 5.92893 85.0711C4.05357 83.1957 3 80.6522 3 78Z" stroke="white" stroke-width="6"/>
<path d="M38 45.5L48 55.5L68 35.5" stroke="white" stroke-width="6" stroke-linecap="round" stroke-linejoin="round"/>
</svg>
